REM DIRINDEX 1\2\4\8,1\2\4\9,1\2\4\10,1\2\5\11,1\2\5\12,1\2\5\13,1\2\5\14,1\2\5\15,1\3\6\16,1\3\6\17,1\3\6\18,1\3\7\19,1\3\7\20,1\3\7\21,1\3\7\22,1\3\7\23
REM DIRNAME "folder01","folder02","folder03","folder04","folder05","folder06","folder07","folder08","folder09","folder10","folder11","folder12","folder13","folder14","folder15","folder16","folder17","folder18","folder19","folder20","folder21","folder22","folder23"
TITLE ""
FILE "LR_black_phrase_E_A09.mp3" MP3
  TRACK 01 AUDIO
    TITLE "0:"
    INDEX 01 00:00:00
  TRACK 02 AUDIO
    TITLE "16:cjc171_08721"
    INDEX 01 00:00:14
  TRACK 03 AUDIO
    TITLE "0:"
    INDEX 01 00:01:41
  TRACK 04 AUDIO
    TITLE "17:cjc171_08722"
    INDEX 01 00:01:72
  TRACK 05 AUDIO
    TITLE "0:"
    INDEX 01 00:04:02
  TRACK 06 AUDIO
    TITLE "18:cjc171_08723"
    INDEX 01 00:04:55
  TRACK 07 AUDIO
    TITLE "0:"
    INDEX 01 00:06:60
  TRACK 08 AUDIO
    TITLE "16:cjc171_08724"
    INDEX 01 00:07:61
  TRACK 09 AUDIO
    TITLE "0:"
    INDEX 01 00:09:03
  TRACK 10 AUDIO
    TITLE "17:cjc171_08725"
    INDEX 01 00:09:33
  TRACK 11 AUDIO
    TITLE "0:"
    INDEX 01 00:11:18
  TRACK 12 AUDIO
    TITLE "18:cjc171_08726"
    INDEX 01 00:11:71
  TRACK 13 AUDIO
    TITLE "0:"
    INDEX 01 00:13:54
  TRACK 14 AUDIO
    TITLE "16:cjc171_08727"
    INDEX 01 00:14:57
  TRACK 15 AUDIO
    TITLE "0:"
    INDEX 01 00:16:03
  TRACK 16 AUDIO
    TITLE "17:cjc171_08728"
    INDEX 01 00:16:33
  TRACK 17 AUDIO
    TITLE "0:"
    INDEX 01 00:18:40
  TRACK 18 AUDIO
    TITLE "18:cjc171_08729"
    INDEX 01 00:19:19
  TRACK 19 AUDIO
    TITLE "0:"
    INDEX 01 00:21:28
  TRACK 20 AUDIO
    TITLE "16:cjc171_08730"
    INDEX 01 00:22:24
  TRACK 21 AUDIO
    TITLE "0:"
    INDEX 01 00:23:60
  TRACK 22 AUDIO
    TITLE "17:cjc171_08731"
    INDEX 01 00:24:07
  TRACK 23 AUDIO
    TITLE "0:"
    INDEX 01 00:27:07
  TRACK 24 AUDIO
    TITLE "18:cjc171_08732"
    INDEX 01 00:27:58
  TRACK 25 AUDIO
    TITLE "0:"
    INDEX 01 00:30:58
  TRACK 26 AUDIO
    TITLE "16:cjc171_08733"
    INDEX 01 00:31:62
  TRACK 27 AUDIO
    TITLE "0:"
    INDEX 01 00:33:12
  TRACK 28 AUDIO
    TITLE "17:cjc171_08734"
    INDEX 01 00:33:35
  TRACK 29 AUDIO
    TITLE "0:"
    INDEX 01 00:35:71
  TRACK 30 AUDIO
    TITLE "18:cjc171_08735"
    INDEX 01 00:36:39
  TRACK 31 AUDIO
    TITLE "0:"
    INDEX 01 00:39:01
  TRACK 32 AUDIO
    TITLE "16:cjc171_08736"
    INDEX 01 00:39:73
  TRACK 33 AUDIO
    TITLE "0:"
    INDEX 01 00:41:17
  TRACK 34 AUDIO
    TITLE "17:cjc171_08737"
    INDEX 01 00:41:35
  TRACK 35 AUDIO
    TITLE "0:"
    INDEX 01 00:44:06
  TRACK 36 AUDIO
    TITLE "18:cjc171_08738"
    INDEX 01 00:44:60
  TRACK 37 AUDIO
    TITLE "0:"
    INDEX 01 00:47:35
  TRACK 38 AUDIO
    TITLE "16:cjc171_08739"
    INDEX 01 00:48:35
  TRACK 39 AUDIO
    TITLE "0:"
    INDEX 01 00:49:60
  TRACK 40 AUDIO
    TITLE "17:cjc171_08740"
    INDEX 01 00:50:02
  TRACK 41 AUDIO
    TITLE "0:"
    INDEX 01 00:51:63
  TRACK 42 AUDIO
    TITLE "18:cjc171_08741"
    INDEX 01 00:52:33
  TRACK 43 AUDIO
    TITLE "0:"
    INDEX 01 00:54:18
  TRACK 44 AUDIO
    TITLE "16:cjc171_08742"
    INDEX 01 00:55:19
  TRACK 45 AUDIO
    TITLE "0:"
    INDEX 01 00:56:38
  TRACK 46 AUDIO
    TITLE "17:cjc171_08743"
    INDEX 01 00:56:70
  TRACK 47 AUDIO
    TITLE "0:"
    INDEX 01 00:58:67
  TRACK 48 AUDIO
    TITLE "18:cjc171_08744"
    INDEX 01 00:59:44
  TRACK 49 AUDIO
    TITLE "0:"
    INDEX 01 01:01:37
  TRACK 50 AUDIO
    TITLE "16:cjc171_08745"
    INDEX 01 01:02:39
  TRACK 51 AUDIO
    TITLE "0:"
    INDEX 01 01:03:50
  TRACK 52 AUDIO
    TITLE "17:cjc171_08746"
    INDEX 01 01:04:02
  TRACK 53 AUDIO
    TITLE "0:"
    INDEX 01 01:05:61
  TRACK 54 AUDIO
    TITLE "18:cjc171_08747"
    INDEX 01 01:06:43
  TRACK 55 AUDIO
    TITLE "0:"
    INDEX 01 01:08:24
  TRACK 56 AUDIO
    TITLE "16:cjc171_08748"
    INDEX 01 01:09:21
  TRACK 57 AUDIO
    TITLE "0:"
    INDEX 01 01:10:46
  TRACK 58 AUDIO
    TITLE "17:cjc171_08749"
    INDEX 01 01:10:74
  TRACK 59 AUDIO
    TITLE "0:"
    INDEX 01 01:13:45
  TRACK 60 AUDIO
    TITLE "18:cjc171_08750"
    INDEX 01 01:14:18
  TRACK 61 AUDIO
    TITLE "0:"
    INDEX 01 01:16:64
  TRACK 62 AUDIO
    TITLE "16:cjc171_08751"
    INDEX 01 01:17:60
  TRACK 63 AUDIO
    TITLE "0:"
    INDEX 01 01:19:10
  TRACK 64 AUDIO
    TITLE "17:cjc171_08752"
    INDEX 01 01:19:35
  TRACK 65 AUDIO
    TITLE "0:"
    INDEX 01 01:22:34
  TRACK 66 AUDIO
    TITLE "18:cjc171_08753"
    INDEX 01 01:23:04
  TRACK 67 AUDIO
    TITLE "0:"
    INDEX 01 01:26:06
  TRACK 68 AUDIO
    TITLE "16:cjc171_08754"
    INDEX 01 01:27:04
  TRACK 69 AUDIO
    TITLE "0:"
    INDEX 01 01:28:13
  TRACK 70 AUDIO
    TITLE "17:cjc171_08755"
    INDEX 01 01:28:40
  TRACK 71 AUDIO
    TITLE "0:"
    INDEX 01 01:30:19
  TRACK 72 AUDIO
    TITLE "18:cjc171_08756"
    INDEX 01 01:30:72
  TRACK 73 AUDIO
    TITLE "0:"
    INDEX 01 01:32:50
  TRACK 74 AUDIO
    TITLE "16:cjc171_08757"
    INDEX 01 01:33:51
  TRACK 75 AUDIO
    TITLE "0:"
    INDEX 01 01:34:72
  TRACK 76 AUDIO
    TITLE "17:cjc171_08758"
    INDEX 01 01:35:27
  TRACK 77 AUDIO
    TITLE "0:"
    INDEX 01 01:37:45
  TRACK 78 AUDIO
    TITLE "18:cjc171_08759"
    INDEX 01 01:38:25
  TRACK 79 AUDIO
    TITLE "0:"
    INDEX 01 01:40:43
  TRACK 80 AUDIO
    TITLE "16:cjc171_08760"
    INDEX 01 01:41:47
  TRACK 81 AUDIO
    TITLE "0:"
    INDEX 01 01:42:74
  TRACK 82 AUDIO
    TITLE "17:cjc171_08761"
    INDEX 01 01:43:30
  TRACK 83 AUDIO
    TITLE "0:"
    INDEX 01 01:47:26
  TRACK 84 AUDIO
    TITLE "18:cjc171_08762"
    INDEX 01 01:48:02
  TRACK 85 AUDIO
    TITLE "0:"
    INDEX 01 01:51:73
  TRACK 86 AUDIO
    TITLE "16:cjc171_08763"
    INDEX 01 01:52:74
  TRACK 87 AUDIO
    TITLE "0:"
    INDEX 01 01:54:16
  TRACK 88 AUDIO
    TITLE "17:cjc171_08764"
    INDEX 01 01:54:43
  TRACK 89 AUDIO
    TITLE "0:"
    INDEX 01 01:56:33
  TRACK 90 AUDIO
    TITLE "18:cjc171_08765"
    INDEX 01 01:57:12
  TRACK 91 AUDIO
    TITLE "0:"
    INDEX 01 01:58:75
  TRACK 92 AUDIO
    TITLE "16:cjc171_08766"
    INDEX 01 02:00:05
  TRACK 93 AUDIO
    TITLE "0:"
    INDEX 01 02:01:22
  TRACK 94 AUDIO
    TITLE "17:cjc171_08767"
    INDEX 01 02:01:42
  TRACK 95 AUDIO
    TITLE "0:"
    INDEX 01 02:03:72
  TRACK 96 AUDIO
    TITLE "18:cjc171_08768"
    INDEX 01 02:04:42
  TRACK 97 AUDIO
    TITLE "0:"
    INDEX 01 02:06:72
  TRACK 98 AUDIO
    TITLE "16:cjc171_08769"
    INDEX 01 02:07:70
  TRACK 99 AUDIO
    TITLE "0:"
    INDEX 01 02:09:10
  TRACK 100 AUDIO
    TITLE "17:cjc171_08770"
    INDEX 01 02:09:37
  TRACK 101 AUDIO
    TITLE "0:"
    INDEX 01 02:11:44
  TRACK 102 AUDIO
    TITLE "18:cjc171_08771"
    INDEX 01 02:12:18
  TRACK 103 AUDIO
    TITLE "0:"
    INDEX 01 02:14:27
  TRACK 104 AUDIO
    TITLE "16:cjc171_08772"
    INDEX 01 02:15:24
  TRACK 105 AUDIO
    TITLE "0:"
    INDEX 01 02:16:55
  TRACK 106 AUDIO
    TITLE "17:cjc171_08773"
    INDEX 01 02:17:01
  TRACK 107 AUDIO
    TITLE "0:"
    INDEX 01 02:18:71
  TRACK 108 AUDIO
    TITLE "18:cjc171_08774"
    INDEX 01 02:19:41
  TRACK 109 AUDIO
    TITLE "0:"
    INDEX 01 02:21:36
  TRACK 110 AUDIO
    TITLE "16:cjc171_08775"
    INDEX 01 02:22:36
  TRACK 111 AUDIO
    TITLE "0:"
    INDEX 01 02:23:53
  TRACK 112 AUDIO
    TITLE "17:cjc171_08776"
    INDEX 01 02:24:07
  TRACK 113 AUDIO
    TITLE "0:"
    INDEX 01 02:26:49
  TRACK 114 AUDIO
    TITLE "18:cjc171_08777"
    INDEX 01 02:27:29
  TRACK 115 AUDIO
    TITLE "0:"
    INDEX 01 02:29:71
  TRACK 116 AUDIO
    TITLE "16:cjc171_08778"
    INDEX 01 02:31:03
  TRACK 117 AUDIO
    TITLE "0:"
    INDEX 01 02:32:24
  TRACK 118 AUDIO
    TITLE "17:cjc171_08779"
    INDEX 01 02:32:56
  TRACK 119 AUDIO
    TITLE "0:"
    INDEX 01 02:35:19
  TRACK 120 AUDIO
    TITLE "18:cjc171_08780"
    INDEX 01 02:35:74
  TRACK 121 AUDIO
    TITLE "0:"
    INDEX 01 02:38:39
  TRACK 122 AUDIO
    TITLE "16:cjc171_08781"
    INDEX 01 02:39:44
  TRACK 123 AUDIO
    TITLE "0:"
    INDEX 01 02:40:57
  TRACK 124 AUDIO
    TITLE "17:cjc171_08782"
    INDEX 01 02:41:12
  TRACK 125 AUDIO
    TITLE "0:"
    INDEX 01 02:43:67
  TRACK 126 AUDIO
    TITLE "18:cjc171_08783"
    INDEX 01 02:44:47
  TRACK 127 AUDIO
    TITLE "0:"
    INDEX 01 02:47:26
  TRACK 128 AUDIO
    TITLE "16:cjc171_08784"
    INDEX 01 02:48:27
  TRACK 129 AUDIO
    TITLE "0:"
    INDEX 01 02:49:66
  TRACK 130 AUDIO
    TITLE "17:cjc171_08785"
    INDEX 01 02:50:19
  TRACK 131 AUDIO
    TITLE "0:"
    INDEX 01 02:52:31
  TRACK 132 AUDIO
    TITLE "18:cjc171_08786"
    INDEX 01 02:53:01
  TRACK 133 AUDIO
    TITLE "0:"
    INDEX 01 02:55:18
  TRACK 134 AUDIO
    TITLE "16:cjc171_08787"
    INDEX 01 02:56:11
  TRACK 135 AUDIO
    TITLE "0:"
    INDEX 01 02:57:38
  TRACK 136 AUDIO
    TITLE "17:cjc171_08788"
    INDEX 01 02:57:58
  TRACK 137 AUDIO
    TITLE "0:"
    INDEX 01 02:59:63
  TRACK 138 AUDIO
    TITLE "18:cjc171_08789"
    INDEX 01 03:00:33
  TRACK 139 AUDIO
    TITLE "0:"
    INDEX 01 03:02:37
  TRACK 140 AUDIO
    TITLE "16:cjc171_08790"
    INDEX 01 03:03:33
  TRACK 141 AUDIO
    TITLE "0:"
    INDEX 01 03:04:28
  TRACK 142 AUDIO
    TITLE "17:cjc171_08791"
    INDEX 01 03:04:50
  TRACK 143 AUDIO
    TITLE "0:"
    INDEX 01 03:06:41
  TRACK 144 AUDIO
    TITLE "18:cjc171_08792"
    INDEX 01 03:07:11
  TRACK 145 AUDIO
    TITLE "0:"
    INDEX 01 03:09:02
  TRACK 146 AUDIO
    TITLE "16:cjc171_08793"
    INDEX 01 03:10:06
  TRACK 147 AUDIO
    TITLE "0:"
    INDEX 01 03:11:19
  TRACK 148 AUDIO
    TITLE "17:cjc171_08794"
    INDEX 01 03:11:48
  TRACK 149 AUDIO
    TITLE "0:"
    INDEX 01 03:14:29
  TRACK 150 AUDIO
    TITLE "18:cjc171_08795"
    INDEX 01 03:15:07
  TRACK 151 AUDIO
    TITLE "0:"
    INDEX 01 03:17:62
  TRACK 152 AUDIO
    TITLE "16:cjc171_08796"
    INDEX 01 03:18:70
  TRACK 153 AUDIO
    TITLE "0:"
    INDEX 01 03:20:16
  TRACK 154 AUDIO
    TITLE "17:cjc171_08797"
    INDEX 01 03:20:47
  TRACK 155 AUDIO
    TITLE "0:"
    INDEX 01 03:23:18
  TRACK 156 AUDIO
    TITLE "18:cjc171_08798"
    INDEX 01 03:23:71
  TRACK 157 AUDIO
    TITLE "0:"
    INDEX 01 03:26:46
  TRACK 158 AUDIO
    TITLE "16:cjc171_08799"
    INDEX 01 03:27:49
  TRACK 159 AUDIO
    TITLE "0:"
    INDEX 01 03:28:60
  TRACK 160 AUDIO
    TITLE "17:cjc171_08800"
    INDEX 01 03:29:15
  TRACK 161 AUDIO
    TITLE "0:"
    INDEX 01 03:31:27
  TRACK 162 AUDIO
    TITLE "18:cjc171_08801"
    INDEX 01 03:32:07
  TRACK 163 AUDIO
    TITLE "0:"
    INDEX 01 03:34:20
  TRACK 164 AUDIO
    TITLE "16:cjc171_08802"
    INDEX 01 03:35:17
  TRACK 165 AUDIO
    TITLE "0:"
    INDEX 01 03:36:36
  TRACK 166 AUDIO
    TITLE "17:cjc171_08803"
    INDEX 01 03:36:52
  TRACK 167 AUDIO
    TITLE "0:"
    INDEX 01 03:38:66
  TRACK 168 AUDIO
    TITLE "18:cjc171_08804"
    INDEX 01 03:39:35
  TRACK 169 AUDIO
    TITLE "0:"
    INDEX 01 03:41:47
  TRACK 170 AUDIO
    TITLE "16:cjc171_08805"
    INDEX 01 03:42:45
  TRACK 171 AUDIO
    TITLE "0:"
    INDEX 01 03:44:01
  TRACK 172 AUDIO
    TITLE "17:cjc171_08806"
    INDEX 01 03:44:18
  TRACK 173 AUDIO
    TITLE "0:"
    INDEX 01 03:46:33
  TRACK 174 AUDIO
    TITLE "18:cjc171_08807"
    INDEX 01 03:46:74
  TRACK 175 AUDIO
    TITLE "0:"
    INDEX 01 03:49:13
  TRACK 176 AUDIO
    TITLE "16:cjc171_08808"
    INDEX 01 03:50:07
  TRACK 177 AUDIO
    TITLE "0:"
    INDEX 01 03:51:26
  TRACK 178 AUDIO
    TITLE "17:cjc171_08809"
    INDEX 01 03:51:52
  TRACK 179 AUDIO
    TITLE "0:"
    INDEX 01 03:53:70
  TRACK 180 AUDIO
    TITLE "18:cjc171_08810"
    INDEX 01 03:54:42
  TRACK 181 AUDIO
    TITLE "0:"
    INDEX 01 03:56:62
